<?xml version="1.0" standalone="no"?><!DOCTYPE svg PUBLIC "-//W3C//DTD SVG 1.1//EN" "http://www.w3.org/Graphics/SVG/1.1/DTD/svg11.dtd"><svg width="100%" height="100%" viewBox="0 0 357 259" version="1.1" xmlns="http://www.w3.org/2000/svg" xmlns:xlink="http://www.w3.org/1999/xlink" xml:space="preserve" style="fill-rule:evenodd;clip-rule:evenodd;stroke-linecap:round;stroke-linejoin:round;stroke-miterlimit:1.41421;"><path d="M288.915,61.649c3.598,2.059 28.84,0.595 13.306,-35.72c-24.301,-32.471 -47.949,-24.849 -60.465,-17.406c-9.462,0.48 -28.182,13.992 -39.966,26.305c-8.341,9.753 -21.314,-2.881 -23.574,-7.067c-3.057,2.997 -35.705,33.93 0,67.765c-0.966,3.614 -5.902,5.895 -5.902,5.895c-3.686,-7.427 -40.629,-40.029 -52.936,8.641c-9.488,3.377 -61.1,12.055 -79.511,27.403c-5.748,2.412 -20.149,-0.394 -21.679,20.507c-2.22,3.051 -7.276,7.988 -6.235,12.531c-3.65,2.659 -8.071,16.711 0,22.545c-5.731,4.34 -11.233,7.825 -10.697,14.28c0.593,10.992 16.12,10.33 22.175,6.878c3.268,1.627 3.036,8.982 16.436,6.004c-1.772,4.484 6.543,12.576 15.961,7.213c-0.539,9.242 5.108,28.367 33.284,5.902c3.931,6.037 4.522,3.93 10.026,3.946c-1.096,3.67 1.317,6.169 6.343,5.811c1.32,2.871 10.985,7.477 20.303,0c0.399,3.356 8.565,11.248 22.089,6.209c5.116,-0.591 5.767,7.944 17.714,0c4.517,3.586 10.041,7.717 18.207,0c8.636,-4.64 87.992,20.435 115.228,-6.209c26.2,-42.579 -40.877,-106.023 -57.266,-105.617c-4.698,-4.005 -3.074,-6.142 -1.966,-8.592c0,0 1.89,0.189 3.839,-2.847c3.557,0.014 6.379,7.327 16.562,2.847c2.507,2.567 14.854,18.008 20.938,20.284c1.827,2.046 18.035,19.332 46.409,34.818c5.089,4.241 3.229,2.435 7.532,4.978c3.705,0.98 8.389,0.752 11.198,1.091c2.374,-0.156 5.897,-0.795 4.147,-1.724c-0.495,-0.46 -1.615,0 -1.615,0c2.977,-0.168 2.175,-0.038 4.189,-0.666c1.062,-2.067 -1.967,-1.825 -6.058,-2.31c-0.352,-0.042 -0.334,-0.468 -0.663,-0.63c3.415,0.425 6.368,0.901 8.688,0c0.974,-1.351 -3.955,-2.584 -8.688,-3.454l0.663,-0.498c1.845,-0.036 5.932,1.947 6.784,1.225c0.299,-0.735 0.304,-1.587 -1.476,-2.071c-1.709,-0.56 -3.246,-1.592 -3.439,-1.723c-1.166,-1.058 -3.388,-2.971 -6.453,-4.482c-1.804,-0.111 -7.907,-0.277 -10.576,0c-1.321,0.137 -2.328,-0.193 -3.57,-0.865c-8.877,-4.193 -23.581,-28.247 -30.999,-32.046c-4.24,-4.85 -16.462,-22.465 -18.695,-24.369c-2.234,-1.903 6.164,-13.254 -2.306,-20.905c1.303,-1.694 4.489,-8.703 0,-14.811c-6.243,-3.404 9.368,4.433 12.714,-19.066Z" style="fill:#000;stroke-width:0.24px;stroke:#000;"/></svg>