<?xml version="1.0" standalone="no"?><!DOCTYPE svg PUBLIC "-//W3C//DTD SVG 1.1//EN" "http://www.w3.org/Graphics/SVG/1.1/DTD/svg11.dtd"><svg width="100%" height="100%" viewBox="0 0 236 454" version="1.1" xmlns="http://www.w3.org/2000/svg" xmlns:xlink="http://www.w3.org/1999/xlink" xml:space="preserve" style="fill-rule:evenodd;clip-rule:evenodd;stroke-linecap:round;stroke-linejoin:round;stroke-miterlimit:1.41421;"><path id="heading" d="M144.689,53.813c0,0 20.981,-13.302 -6.846,-36.651c-19.801,-22.405 -52.225,-17.966 -62.447,2.3c-10.222,20.266 -24.332,38.317 -19.984,45.391c3.786,7.772 0.507,26.664 -15.636,11.009c-10.046,7.996 -0.792,26.078 4.507,28.008c0.388,2.713 -0.162,10.123 -4.507,12.186c-2.275,-2.621 0.495,-9.448 -10.845,-28.381c0.154,-6.145 2.179,-13.3 2.179,-13.3c0,0 -0.477,-4.2 -2.179,-7.936c-1.345,-2.952 -3.469,-3.267 -5.19,-6.323c-1.508,3.988 -0.668,7.346 1.262,8.422c0.673,2.062 0,3.691 0,3.691c-2.279,2.031 -4.214,2.726 -6.671,0c1.134,-2.678 0.745,-3.707 2.066,-8.139c0.501,-2.316 2.589,-4.389 0,-7.901c-1.801,2.917 -1.415,3.59 -3.432,4.761c-1.379,-0.663 -0.328,-3.685 -2.496,-4.761c-2.168,-1.076 -1.467,-2.65 -2.96,-2.376c-1.494,0.274 -1.17,9.342 -2.079,11.04c-2.253,-0.892 1.005,-4.589 -3.004,-8.664c-1.991,-0.514 -2.813,15.585 -4.747,19.673c-1.389,2.935 10.101,14.479 15.286,18.893c1.282,5.75 5.264,49.597 11.965,53.847c11.251,1.28 30.459,-9.108 31.355,-13.75c4.279,1.807 2.303,5.255 12.427,3.852c-0.246,5.62 0.829,11.694 0,14.304c-1.573,0.08 -76.843,60.166 -71.033,131.863c2.801,4.99 2.908,5.911 9.83,6.274c1.371,4.948 1.386,6.6 5.456,7.103c0.671,1.409 -2.228,8.851 8.037,12.444c4.16,2.013 4.155,10.92 19.28,9.951c-1.017,0.372 0.568,8.366 11.129,4.815c4.418,0.296 7.603,5.438 17.301,0c5.752,2.773 2.346,3.322 8.196,0c-0.043,5.189 1.262,5.824 2.506,9.65c-1.516,4.803 -19.611,28.892 5.535,86.178c-3.705,8.585 -4.786,7.615 -5.535,17.891c6.263,7.536 30.27,19.166 43.146,9.253c6.816,1.024 18.619,8.481 39.583,-9.253c3.131,-7.692 0.258,-13.592 0,-15.763c-2.27,-0.902 -3.076,-2.128 -3.076,-2.128c0,0 4.107,-74.198 -1.796,-86.178c-0.656,-3.66 0.952,-6.51 0,-14.465c3.528,3.667 7.903,-1.255 12.08,-2.458c6.289,-0.19 10.598,4.518 11.638,-5.791c3.077,0.681 6.745,5.042 14.059,-1.702c7.655,0.003 7.393,2.61 12.693,-6.091c9.017,0.587 11.021,-6.479 10.774,-17.641c6.594,0.158 12.971,-4.769 11.005,-16.075c-4.125,-10.738 -30.032,-88.792 -88.832,-117.877c-1.52,-2.876 0,-14.304 0,-14.304c0,0 14.14,2.619 16.583,-3.852c2.315,-6.13 2.242,8.733 26.771,13.75c1.358,0.278 2.659,1.042 3.467,0c12.49,-16.108 -3.078,-49.22 5.959,-59.26c0.238,-5.245 1.252,-10.654 4.35,-17.113c1.366,-5.201 4.687,-9.427 9.923,-13.937c0.057,-2.169 -5.609,-6.115 -12.693,6.561c-1.217,-2.53 0,-11.04 0,-11.04c0,0 -4.293,-4.867 -7.539,11.04c-0.533,-10.944 -2.188,-8.73 -3.467,-4.737c-0.584,1.822 -0.745,6.244 0,10.241c0.94,3.562 -1.826,1.416 -3.053,4.018c-1.951,-0.889 -1.152,-2.583 -2.498,-4.018c1.144,-1.659 1.51,-5.773 -0.584,-8.625c-1.886,-0.942 -1.3,5.488 -3.991,10.497c0.68,5.335 1.184,4.029 2.303,7.532c0.228,4.243 1.743,10.842 3.527,11.871c-1.598,0.908 -4.256,16.626 -5.83,21.308c-3.09,-0.58 -5.221,-3.945 -9.712,-9.07c-0.274,-1.998 2.642,-12.293 -16.391,-14.528c0.145,-0.967 -5.602,-7.888 -7.125,-7.909c-1.524,-0.022 3.2,-3.025 -2.782,-11.076c0.238,-7.974 2.782,-16.544 2.782,-16.544ZM110.093,325.623c0,0 18.451,-1.041 20.929,0c0.092,-2.683 0,10.211 0,10.211c0,0 18.873,70.815 13.502,87.197c-3.171,5.301 -7.435,4.429 -7.435,4.429c0,0 -5.968,-3.396 -9.695,0c-3.416,-0.092 -1.192,-5.182 -11.599,0c-3.327,-2.982 -10.311,-12.014 -11.018,-18.823c-0.124,-8.595 -4.382,-57.75 3.567,-71.264c-0.275,-3.273 1.749,-11.75 1.749,-11.75Z" style="fill:#000;stroke-width:0.24px;stroke:#000;"/></svg>