<?xml version="1.0" standalone="no"?><!DOCTYPE svg PUBLIC "-//W3C//DTD SVG 1.1//EN" "http://www.w3.org/Graphics/SVG/1.1/DTD/svg11.dtd"><svg width="100%" height="100%" viewBox="0 0 262 386" version="1.1" xmlns="http://www.w3.org/2000/svg" xmlns:xlink="http://www.w3.org/1999/xlink" xml:space="preserve" style="fill-rule:evenodd;clip-rule:evenodd;stroke-linejoin:round;stroke-miterlimit:1.41421;"><rect x="57.632" y="82.049" width="145.806" height="258.758" style="fill:#977d6a;"/><g id="FRAME"><path d="M25.574,107.306c-5.578,-3.815 -9.241,-10.228 -9.241,-17.49c0,-11.687 9.489,-21.176 21.177,-21.176c1.851,0 3.647,0.238 5.36,0.686c2.975,-14.768 16.033,-25.903 31.672,-25.903c2.043,0 4.042,0.191 5.98,0.554c7.214,-14.587 20.615,-25.578 36.766,-29.533c1.876,-8.394 7.127,-14.444 13.304,-14.444c6.178,0 11.429,6.05 13.304,14.444c16.508,4.042 30.143,15.434 37.235,30.504c1.791,-0.308 3.633,-0.469 5.512,-0.469c15.284,0 28.104,10.636 31.454,24.905c1.778,-0.485 3.648,-0.744 5.578,-0.744c11.687,0 21.176,9.489 21.176,21.176c0,7.262 -3.663,13.675 -9.24,17.49c1.368,4.729 2.102,9.727 2.102,14.894l0,60.083c6.933,2.804 11.696,8.584 11.696,15.253c0,1.029 -0.114,2.038 -0.332,3.018c7.308,3.061 12.108,8.208 12.108,14.037c0,5.829 -4.8,10.976 -12.108,14.037c0.218,0.98 0.332,1.989 0.332,3.018c0,6.669 -4.763,12.449 -11.696,15.253l0,60.083c0,28.927 -22.983,52.529 -51.669,53.527c-2.718,7.986 -8.713,13.539 -15.665,13.539c-1.891,0 -3.712,-0.411 -5.415,-1.171c-9.478,8.025 -21.412,12.811 -34.372,12.811c-12.959,0 -24.893,-4.786 -34.371,-12.811c-1.703,0.76 -3.524,1.171 -5.416,1.171c-6.951,0 -12.946,-5.553 -15.665,-13.539c-28.686,-0.998 -51.668,-24.6 -51.668,-53.527l0,-60.083c-6.933,-2.804 -11.696,-8.584 -11.696,-15.253c0,-1.029 0.114,-2.038 0.331,-3.018c-7.307,-3.061 -12.107,-8.208 -12.107,-14.037c0,-5.829 4.8,-10.976 12.107,-14.037c-0.217,-0.98 -0.331,-1.989 -0.331,-3.018c0,-6.669 4.763,-12.449 11.696,-15.253l0,-60.083c0,-5.167 0.733,-10.165 2.102,-14.894ZM130.592,365.768c3.047,0 5.52,2.473 5.52,5.52c0,3.046 -2.473,5.52 -5.52,5.52c-3.046,0 -5.52,-2.474 -5.52,-5.52c0,-3.047 2.474,-5.52 5.52,-5.52ZM203.432,82.21l-145.68,0l0,258.838l145.68,0l0,-258.838ZM44.012,245.528l-6.36,0c-1.755,0 -3.18,1.425 -3.18,3.18l0,73.32c0,1.755 1.425,3.18 3.18,3.18l6.36,0c1.755,0 3.18,-1.425 3.18,-3.18l0,-73.32c0,-1.755 -1.424,-3.18 -3.18,-3.18ZM223.532,245.528l-6.36,0c-1.755,0 -3.18,1.425 -3.18,3.18l0,73.32c0,1.755 1.425,3.18 3.18,3.18l6.36,0c1.755,0 3.18,-1.425 3.18,-3.18l0,-73.32c0,-1.755 -1.424,-3.18 -3.18,-3.18ZM223.532,98.648l-6.36,0c-1.755,0 -3.18,1.425 -3.18,3.18l0,73.32c0,1.755 1.425,3.18 3.18,3.18l6.36,0c1.755,0 3.18,-1.425 3.18,-3.18l0,-73.32c0,-1.755 -1.424,-3.18 -3.18,-3.18ZM44.012,98.648l-6.36,0c-1.755,0 -3.18,1.425 -3.18,3.18l0,73.32c0,1.755 1.425,3.18 3.18,3.18l6.36,0c1.755,0 3.18,-1.425 3.18,-3.18l0,-73.32c0,-1.755 -1.424,-3.18 -3.18,-3.18ZM130.592,41.697c5.093,-7.515 15.278,-7.515 20.37,-3.757c5.093,3.757 5.093,11.273 0,18.789c-3.565,5.636 -12.731,11.273 -20.37,15.031c-7.638,-3.758 -16.805,-9.395 -20.37,-15.031c-5.092,-7.516 -5.092,-15.032 0,-18.789c5.093,-3.758 15.278,-3.758 20.37,3.757Z" style="fill:#f9b885;"/></g></svg>