<?xml version="1.0" encoding="UTF-8" standalone="no"?>
<svg width="110px" height="58px" viewBox="0 0 110 58" version="1.1" xmlns="http://www.w3.org/2000/svg" xmlns:xlink="http://www.w3.org/1999/xlink">
    <!-- Generator: Sketch 3.7.2 (28276) - http://www.bohemiancoding.com/sketch -->
    <title>Group 4</title>
    <desc>Created with Sketch.</desc>
    <defs></defs>
    <g id="Symbols" stroke="none" stroke-width="1" fill="none" fill-rule="evenodd">
        <g id="logo-s" transform="translate(0.000000, 1.000000)">
            <g id="Group-4">
                <g id="alice-head" transform="translate(41.000000, 0.000000)" stroke="#4A4A4A" stroke-width="0.24" fill="#4A4A4A">
                    <path d="M17.8840386,6.43354324 C17.8840386,6.43354324 20.4954077,4.78185366 17.0319614,1.88264302 C14.5674592,-0.89935255 10.5318541,-0.348168514 9.25958798,2.1682306 C7.98732189,4.68462971 6.23114163,6.92599557 6.77230901,7.80436364 C7.2435279,8.76940133 6.83541202,11.1151929 4.82619742,9.17133481 C3.57583691,10.1641863 4.72762232,12.4094013 5.38715451,12.6490466 C5.43544635,12.9859157 5.36699142,13.9060044 4.82619742,14.1621641 C4.54304292,13.8367184 4.88780687,12.98902 3.47639056,10.6381375 C3.49555794,9.87512195 3.74759657,8.98669623 3.74759657,8.98669623 C3.74759657,8.98669623 3.68822747,8.46518847 3.47639056,8.0012949 C3.30898712,7.63474945 3.04462661,7.59563636 2.83042489,7.21617738 C2.64273391,7.71136142 2.74728326,8.12831929 2.98749785,8.26192461 C3.0712618,8.51796009 2.98749785,8.7202306 2.98749785,8.7202306 C2.70384549,8.97241685 2.46300858,9.05871397 2.15720172,8.7202306 C2.29834335,8.38770732 2.24992704,8.25993792 2.41434335,7.70962306 C2.47669957,7.42204878 2.7365794,7.16464745 2.41434335,6.72856763 C2.19018455,7.09076718 2.23822747,7.17433259 1.98718455,7.31973392 C1.81554936,7.2374102 1.94636052,6.86217295 1.67652361,6.72856763 C1.4066867,6.59496231 1.49393562,6.39952106 1.30811159,6.43354324 C1.12216309,6.46756541 1.16248927,7.5935255 1.04935193,7.80436364 C0.768935622,7.69360532 1.17443777,7.23455432 0.675463519,6.72856763 C0.427656652,6.66474501 0.325347639,8.66373392 0.0846351931,9.17133481 C-0.0882446352,9.5357694 1.3418412,10.9691707 1.98718455,11.5172506 C2.14674678,12.2312195 2.64236052,17.6756364 3.47639056,18.2033525 C4.87672961,18.3622882 7.26742489,17.0724257 7.37894421,16.4960355 C7.91152361,16.720408 7.66558369,17.148541 8.92565236,16.9743326 C8.89503433,17.6721596 9.02883262,18.4263592 8.92565236,18.750439 C8.72987124,18.7603725 -0.638497854,26.2211619 0.0846351931,35.1236718 C0.433257511,35.7432727 0.446575107,35.8576319 1.30811159,35.9027051 C1.47875107,36.5170909 1.48061803,36.7222173 1.98718455,36.7846741 C2.07069957,36.9596275 1.70987983,37.8836896 2.98749785,38.3298271 C3.50526609,38.5797783 3.50464378,39.6857472 5.38715451,39.5654279 C5.26057511,39.6116186 5.45784979,40.6042217 6.77230901,40.1632993 C7.32218884,40.2000532 7.71860515,40.8385277 8.92565236,40.1632993 C9.64156652,40.5076186 9.21764378,40.5757871 9.94575536,40.1632993 C9.94040343,40.8076098 10.1028283,40.8864568 10.2576609,41.3615255 C10.0689742,41.9579069 7.81680687,44.9490022 10.9465665,52.0621197 C10.4854292,53.1281064 10.3508841,53.007663 10.2576609,54.2836186 C11.037176,55.2193525 14.0251717,56.6634324 15.6277639,55.4325499 C16.4761073,55.5596984 17.9451502,56.4856231 20.5544034,54.2836186 C20.9440987,53.3285144 20.586515,52.5959202 20.5544034,52.3263503 C20.2718712,52.2143503 20.1715536,52.0621197 20.1715536,52.0621197 C20.1715536,52.0621197 20.6827253,42.8490643 19.9480172,41.3615255 C19.8663691,40.9070687 20.0665064,40.5531885 19.9480172,39.5654279 C20.3871245,40.0207539 20.9316524,39.4095965 21.4515365,39.2602217 C22.2342876,39.2366297 22.7706009,39.8212151 22.9000429,38.5411619 C23.2830172,38.6257206 23.7395494,39.1672195 24.6498755,38.3298271 C25.6026438,38.3301996 25.5700343,38.6539069 26.229691,37.5735166 C27.3519785,37.6464035 27.6014034,36.7690288 27.5706609,35.3830599 C28.3913734,35.4026785 29.1850773,34.7909002 28.940382,33.387051 C28.42697,32.0537295 25.2024936,22.3618803 17.8840386,18.750439 C17.6948541,18.3933304 17.8840386,16.9743326 17.8840386,16.9743326 C17.8840386,16.9743326 19.6439528,17.2995299 19.9480172,16.4960355 C20.2361502,15.7348825 20.2270644,17.5803991 23.28003,18.2033525 C23.4490515,18.2378714 23.6109785,18.3327361 23.7115451,18.2033525 C25.2660944,16.2032461 23.3284464,12.0917783 24.4532232,10.8451264 C24.4828455,10.1938625 24.6090515,9.52223503 24.9946395,8.7202306 C25.1646567,8.07443016 25.578,7.54969401 26.229691,6.98969401 C26.2367854,6.72037251 25.5315751,6.23040355 24.6498755,7.80436364 C24.4984034,7.49021729 24.6498755,6.43354324 24.6498755,6.43354324 C24.6498755,6.43354324 24.1155536,5.82921508 23.7115451,7.80436364 C23.645206,6.44546341 23.4392189,6.72037251 23.28003,7.21617738 C23.2073433,7.44241242 23.1873047,7.99148559 23.28003,8.48778714 C23.3970258,8.93007539 23.0527597,8.66360976 22.9000429,8.98669623 C22.6572146,8.87631042 22.7566609,8.66596896 22.589133,8.48778714 C22.7315193,8.28179157 22.777073,7.77096231 22.5164464,7.4168337 C22.2817082,7.29986696 22.3546438,8.09827051 22.0197124,8.7202306 C22.1043476,9.38266962 22.1670773,9.22050554 22.3063519,9.65546785 C22.3347296,10.1823149 22.5232918,11.0017029 22.7453348,11.1294723 C22.5464421,11.2422173 22.215618,13.193898 22.0197124,13.775255 C21.6351202,13.7032373 21.3698884,13.2854102 20.8109227,12.6490466 C20.7768197,12.4009579 21.1397554,11.122643 18.7708412,10.8451264 C18.7888884,10.7250554 18.0735966,9.86568514 17.8840386,9.86307761 C17.6943562,9.8603459 18.2823219,9.48746785 17.5377811,8.48778714 C17.5674034,7.49766741 17.8840386,6.43354324 17.8840386,6.43354324 L17.8840386,6.43354324 Z M13.5780987,40.1837871 C13.5780987,40.1837871 15.8745751,40.0545277 16.1829957,40.1837871 C16.1944464,39.850643 16.1829957,41.4516718 16.1829957,41.4516718 C16.1829957,41.4516718 18.5319957,50.2446652 17.8635021,52.2787938 C17.4688283,52.9370111 16.9381159,52.8287361 16.9381159,52.8287361 C16.9381159,52.8287361 16.1953176,52.4070599 15.7314421,52.8287361 C15.3062747,52.8173126 15.5830815,52.1852949 14.2877897,52.8287361 C13.8736996,52.4584656 13.0044464,51.3369756 12.9164506,50.4915122 C12.9010172,49.4242838 12.3710515,43.3207805 13.360412,41.6427672 C13.3261845,41.2363636 13.5780987,40.1837871 13.5780987,40.1837871 L13.5780987,40.1837871 Z" id="heading"></path>
                </g>
                <g id="title" font-family="Soria-Soria, Soria" fill="#D0B17D" font-weight="normal">
                    <text id="Alice-broke-" font-size="22.292887">
                        <tspan x="10.9253724" y="22">Alice broke </tspan>
                    </text>
                    <text id="" font-size="22.292887">
                        <tspan x="0.15790795" y="51">Looking Glass</tspan>
                    </text>
                    <text id="the" font-size="16.7196653">
                        <tspan x="46.297682" y="35.2931034">the</tspan>
                    </text>
                </g>
            </g>
        </g>
    </g>
</svg>