<?xml version="1.0" encoding="UTF-8" standalone="no"?>
<svg width="457px" height="451px" viewBox="0 0 457 451" version="1.1" xmlns="http://www.w3.org/2000/svg" xmlns:xlink="http://www.w3.org/1999/xlink">
    <!-- Generator: Sketch 3.7.2 (28276) - http://www.bohemiancoding.com/sketch -->
    <title>logo</title>
    <desc>Created with Sketch.</desc>
    <defs></defs>
    <g id="Symbols" stroke="none" stroke-width="1" fill="none" fill-rule="evenodd">
        <g id="logo">
            <g>
                <g id="alice-head" transform="translate(112.000000, 0.000000)" stroke="#4A4A4A" stroke-width="0.24" fill="#4A4A4A">
                    <path d="M143.689,51.813 C143.689,51.813 164.67,38.511 136.843,15.162 C117.042,-7.243 84.618,-2.804 74.396,17.462 C64.174,37.728 50.064,55.779 54.412,62.853 C58.198,70.625 54.919,89.517 38.776,73.862 C28.73,81.858 37.984,99.94 43.283,101.87 C43.671,104.583 43.121,111.993 38.776,114.056 C36.501,111.435 39.271,104.608 27.931,85.675 C28.085,79.53 30.11,72.375 30.11,72.375 C30.11,72.375 29.633,68.175 27.931,64.439 C26.586,61.487 24.462,61.172 22.741,58.116 C21.233,62.104 22.073,65.462 24.003,66.538 C24.676,68.6 24.003,70.229 24.003,70.229 C21.724,72.26 19.789,72.955 17.332,70.229 C18.466,67.551 18.077,66.522 19.398,62.09 C19.899,59.774 21.987,57.701 19.398,54.189 C17.597,57.106 17.983,57.779 15.966,58.95 C14.587,58.287 15.638,55.265 13.47,54.189 C11.302,53.113 12.003,51.539 10.51,51.813 C9.016,52.087 9.34,61.155 8.431,62.853 C6.178,61.961 9.436,58.264 5.427,54.189 C3.436,53.675 2.614,69.774 0.68,73.862 C-0.709,76.797 10.781,88.341 15.966,92.755 C17.248,98.505 21.23,142.352 27.931,146.602 C39.182,147.882 58.39,137.494 59.286,132.852 C63.565,134.659 61.589,138.107 71.713,136.704 C71.467,142.324 72.542,148.398 71.713,151.008 C70.14,151.088 -5.13,211.174 0.68,282.871 C3.481,287.861 3.588,288.782 10.51,289.145 C11.881,294.093 11.896,295.745 15.966,296.248 C16.637,297.657 13.738,305.099 24.003,308.692 C28.163,310.705 28.158,319.612 43.283,318.643 C42.266,319.015 43.851,327.009 54.412,323.458 C58.83,323.754 62.015,328.896 71.713,323.458 C77.465,326.231 74.059,326.78 79.909,323.458 C79.866,328.647 81.171,329.282 82.415,333.108 C80.899,337.911 62.804,362 87.95,419.286 C84.245,427.871 83.164,426.901 82.415,437.177 C88.678,444.713 112.685,456.343 125.561,446.43 C132.377,447.454 144.18,454.911 165.144,437.177 C168.275,429.485 165.402,423.585 165.144,421.414 C162.874,420.512 162.068,419.286 162.068,419.286 C162.068,419.286 166.175,345.088 160.272,333.108 C159.616,329.448 161.224,326.598 160.272,318.643 C163.8,322.31 168.175,317.388 172.352,316.185 C178.641,315.995 182.95,320.703 183.99,310.394 C187.067,311.075 190.735,315.436 198.049,308.692 C205.704,308.695 205.442,311.302 210.742,302.601 C219.759,303.188 221.763,296.122 221.516,284.96 C228.11,285.118 234.487,280.191 232.521,268.885 C228.396,258.147 202.489,180.093 143.689,151.008 C142.169,148.132 143.689,136.704 143.689,136.704 C143.689,136.704 157.829,139.323 160.272,132.852 C162.587,126.722 162.514,141.585 187.043,146.602 C188.401,146.88 189.702,147.644 190.51,146.602 C203,130.494 187.432,97.382 196.469,87.342 C196.707,82.097 197.721,76.688 200.819,70.229 C202.185,65.028 205.506,60.802 210.742,56.292 C210.799,54.123 205.133,50.177 198.049,62.853 C196.832,60.323 198.049,51.813 198.049,51.813 C198.049,51.813 193.756,46.946 190.51,62.853 C189.977,51.909 188.322,54.123 187.043,58.116 C186.459,59.938 186.298,64.36 187.043,68.357 C187.983,71.919 185.217,69.773 183.99,72.375 C182.039,71.486 182.838,69.792 181.492,68.357 C182.636,66.698 183.002,62.584 180.908,59.732 C179.022,58.79 179.608,65.22 176.917,70.229 C177.597,75.564 178.101,74.258 179.22,77.761 C179.448,82.004 180.963,88.603 182.747,89.632 C181.149,90.54 178.491,106.258 176.917,110.94 C173.827,110.36 171.696,106.995 167.205,101.87 C166.931,99.872 169.847,89.577 150.814,87.342 C150.959,86.375 145.212,79.454 143.689,79.433 C142.165,79.411 146.889,76.408 140.907,68.357 C141.145,60.383 143.689,51.813 143.689,51.813 L143.689,51.813 Z M109.093,323.623 C109.093,323.623 127.544,322.582 130.022,323.623 C130.114,320.94 130.022,333.834 130.022,333.834 C130.022,333.834 148.895,404.649 143.524,421.031 C140.353,426.332 136.089,425.46 136.089,425.46 C136.089,425.46 130.121,422.064 126.394,425.46 C122.978,425.368 125.202,420.278 114.795,425.46 C111.468,422.478 104.484,413.446 103.777,406.637 C103.653,398.042 99.395,348.887 107.344,335.373 C107.069,332.1 109.093,323.623 109.093,323.623 L109.093,323.623 Z" id="heading"></path>
                </g>
                <g id="title" font-family="Soria-Soria, Soria" fill="#D0B17D" font-weight="normal">
                    <text id="Alice-broke-" font-size="93">
                        <tspan x="42.0465" y="89">Alice broke </tspan>
                    </text>
                    <text id="" font-size="93">
                        <tspan x="-2.3725" y="193">Looking Glass</tspan>
                    </text>
                    <text id="the" font-size="66">
                        <tspan x="192.591" y="133">the</tspan>
                    </text>
                </g>
            </g>
        </g>
    </g>
</svg>