<?xml version="1.0" encoding="UTF-8" standalone="no"?>
<svg width="237px" height="429px" viewBox="0 0 237 429" version="1.1" xmlns="http://www.w3.org/2000/svg" xmlns:xlink="http://www.w3.org/1999/xlink">
    <!-- Generator: Sketch 3.7.2 (28276) - http://www.bohemiancoding.com/sketch -->
    <title>Group 6</title>
    <desc>Created with Sketch.</desc>
    <defs></defs>
    <g id="Symbols" stroke="none" stroke-width="1" fill="none" fill-rule="evenodd">
        <g id="logo-m" transform="translate(-1.000000, 0.000000)">
            <g id="Group-6">
                <g id="alice-head" transform="translate(12.000000, 0.000000)" stroke="#4A4A4A" stroke-width="0.24" fill="#4A4A4A">
                    <path d="M136.905399,49.2855366 C136.905399,49.2855366 156.89588,36.6324146 130.382601,14.4223902 C111.516412,-6.88968293 80.6231588,-2.66721951 70.8837425,16.6101951 C61.1443262,35.8876098 47.7004635,53.0580732 51.8431931,59.787 C55.4504549,67.179878 52.3262575,85.1503171 36.9453734,70.2589756 C27.3736481,77.8649268 36.1907639,95.064878 41.2395966,96.9007317 C41.609279,99.4813902 41.0852446,106.529927 36.9453734,108.492293 C34.7777768,105.999146 37.4170043,99.5051707 26.6123691,81.4957317 C26.7590987,75.6504878 28.6884979,68.8445122 28.6884979,68.8445122 C28.6884979,68.8445122 28.2340172,64.8493902 26.6123691,61.2956341 C25.330867,58.4876341 23.3071416,58.188 21.6673906,55.2810732 C20.2305837,59.0745366 21.030927,62.2687317 22.8698112,63.2922439 C23.5110386,65.2536585 22.8698112,66.8031951 22.8698112,66.8031951 C20.6984034,68.735122 18.8547554,69.3962195 16.5137511,66.8031951 C17.5942146,64.2558293 17.2235794,63.2770244 18.4822146,59.0612195 C18.9595622,56.8581951 20.9489871,54.8863171 18.4822146,51.5456341 C16.7662403,54.3203415 17.1340172,54.9605122 15.2122403,56.0743902 C13.8983433,55.4437317 14.8997253,52.5691463 12.8340773,51.5456341 C10.7684292,50.522122 11.4363348,49.0249024 10.0138197,49.2855366 C8.59035193,49.5461707 8.89905579,58.1718293 8.03296996,59.787 C5.88633476,58.9385122 8.99052361,55.4218537 5.1707897,51.5456341 C3.27378541,51.0567073 2.49059227,66.3703902 0.647896996,70.2589756 C-0.675527897,73.0508049 10.2720258,84.0316829 15.2122403,88.2303659 C16.4337167,93.699878 20.2277253,135.408 26.6123691,139.450683 C37.332206,140.668244 55.6333906,130.786976 56.4870901,126.371415 C60.5640773,128.090268 58.6813648,131.370073 68.3274077,130.035512 C68.0930215,135.381366 69.1172704,141.159073 68.3274077,143.641756 C66.8286695,143.717854 -4.88781116,200.872829 0.647896996,269.072415 C3.31666094,273.819 3.41860944,274.695073 10.0138197,275.040366 C11.3200944,279.747 11.3343863,281.318415 15.2122403,281.796878 C15.8515622,283.137146 13.0894249,290.216122 22.8698112,293.633854 C26.8334163,295.548659 26.8286524,304.021171 41.2395966,303.099439 C40.2706094,303.453293 41.7807811,311.057341 51.8431931,307.679561 C56.052618,307.961122 59.0872532,312.852293 68.3274077,307.679561 C73.8078541,310.317293 70.5626524,310.839512 76.1364721,307.679561 C76.0955021,312.615439 77.3388927,313.219463 78.5241631,316.858829 C77.0797339,321.427537 59.8390043,344.341463 83.7978541,398.833024 C80.2677682,406.999244 79.2378026,406.076561 78.5241631,415.851293 C84.491485,423.019683 107.365107,434.082366 119.633227,424.652927 C126.127442,425.626976 137.373219,432.72022 157.347502,415.851293 C160.330687,408.534512 157.593322,402.922317 157.347502,400.85722 C155.18467,399.99922 154.416721,398.833024 154.416721,398.833024 C154.416721,398.833024 158.329828,328.254439 152.705511,316.858829 C152.080481,313.377366 153.612567,310.66639 152.705511,303.099439 C156.066953,306.587561 160.235408,301.905659 164.21521,300.761341 C170.207305,300.58061 174.312876,305.058951 175.303777,295.252829 C178.235511,295.90061 181.730343,300.048878 188.699047,293.633854 C195.992652,293.636707 195.743021,296.116537 200.792807,287.839976 C209.384112,288.398341 211.293502,281.677024 211.058163,271.059512 C217.340858,271.209805 223.416798,266.523146 221.543614,255.768659 C217.613356,245.554463 192.929433,171.307976 136.905399,143.641756 C135.457159,140.906049 136.905399,130.035512 136.905399,130.035512 C136.905399,130.035512 150.377845,132.526756 152.705511,126.371415 C154.911219,120.540439 154.841665,134.678415 178.212644,139.450683 C179.506532,139.715122 180.746112,140.441854 181.515966,139.450683 C193.416309,124.128439 178.583279,92.6316585 187.193639,83.0814146 C187.420403,78.0922683 188.386532,72.947122 191.338275,66.8031951 C192.639785,61.8559024 195.804,57.8360488 200.792807,53.5460488 C200.847116,51.4828537 195.448609,47.7293415 188.699047,59.787 C187.539502,57.3804146 188.699047,49.2855366 188.699047,49.2855366 C188.699047,49.2855366 184.608721,44.6559512 181.515966,59.787 C181.008129,49.3768537 179.431262,51.4828537 178.212644,55.2810732 C177.656215,57.0141951 177.502815,61.2204878 178.212644,65.0225122 C179.108266,68.4107561 176.47285,66.369439 175.303777,68.8445122 C173.444884,67.998878 174.206163,66.3875122 172.923708,65.0225122 C174.0137,63.444439 174.362421,59.531122 172.367279,56.8182439 C170.570318,55.9221951 171.128652,62.0385366 168.564695,66.8031951 C169.212592,71.8779512 169.692798,70.6356585 170.75897,73.9677805 C170.976206,78.0038049 172.419682,84.2809024 174.119459,85.2597073 C172.596901,86.1234146 170.064386,101.074683 168.564695,105.528293 C165.620575,104.976585 163.59018,101.775732 159.311202,96.9007317 C159.050137,95.0001951 161.828472,85.2073902 143.694026,83.0814146 C143.83218,82.1615854 138.356498,75.5781951 136.905399,75.5582195 C135.453348,75.5372927 139.954326,72.6807805 134.254738,65.0225122 C134.481502,57.4374878 136.905399,49.2855366 136.905399,49.2855366 L136.905399,49.2855366 Z M103.942687,307.836512 C103.942687,307.836512 121.522609,306.846293 123.883622,307.836512 C123.971279,305.28439 123.883622,317.549415 123.883622,317.549415 C123.883622,317.549415 141.865622,384.910024 136.748189,400.492902 C133.726893,405.535317 129.664197,404.705854 129.664197,404.705854 C129.664197,404.705854 123.977948,401.475512 120.426901,404.705854 C117.172172,404.618341 119.291176,399.776634 109.375494,404.705854 C106.205562,401.869317 99.551279,393.277902 98.8776567,386.801049 C98.7595107,378.625317 94.7025322,331.868122 102.276258,319.013341 C102.01424,315.9 103.942687,307.836512 103.942687,307.836512 L103.942687,307.836512 Z" id="heading"></path>
                </g>
                <g id="title" transform="translate(0.000000, 48.000000)" font-family="Soria-Soria, Soria" fill="#D0B17D" font-weight="normal">
                    <text id="Alice-broke-" font-size="48">
                        <tspan x="23.524" y="46">Alice broke </tspan>
                    </text>
                    <text id="" font-size="48">
                        <tspan x="0.34" y="104">Looking Glass</tspan>
                    </text>
                    <text id="the" font-size="36">
                        <tspan x="99.686" y="69">the</tspan>
                    </text>
                </g>
            </g>
        </g>
    </g>
</svg>